<svg width="1979" height="2328" viewBox="0 0 1979 2328" fill="none" xmlns="http://www.w3.org/2000/svg">
<path d="M454.366 816.327C24.124 1034.2 272.782 1475.12 450.891 1668.34C986.779 2118.7 1151.67 1568.89 920.589 1208.14C689.507 847.393 1490.41 1010.38 1451.01 478.286C1405.32 -138.702 992.169 543.984 454.366 816.327Z" stroke="#3039AC" stroke-width="3"/>
<path opacity="0.95875" d="M470.6 832.472C33.0166 1035.2 266.135 1484.52 437.392 1683.85C957.237 2152.63 1141.22 1608.91 922.865 1240.32C704.514 871.725 1499.24 1062.57 1478.43 529.42C1454.31 -88.7874 1017.58 579.064 470.6 832.472Z" stroke="#3039AC" stroke-width="3"/>
<path opacity="0.9175" d="M486.261 849.174C41.8685 1036.51 259.164 1493.69 423.36 1698.87C926.528 2185.51 1129.37 1648.54 924.017 1272.55C718.662 896.567 1506.25 1115.03 1504.06 581.479C1501.52 -37.1933 1041.75 615.01 486.261 849.174Z" stroke="#3039AC" stroke-width="3"/>
<path opacity="0.87625" d="M501.329 866.413C50.6694 1038.12 251.876 1502.61 408.812 1713.4C894.69 2217.3 1116.15 1687.74 924.042 1304.81C731.934 921.887 1511.41 1167.7 1527.85 634.401C1546.9 16.0171 1064.65 651.777 501.329 866.413Z" stroke="#3039AC" stroke-width="3"/>
<path opacity="0.835" d="M515.786 884.167C59.4086 1040.04 244.283 1511.27 393.767 1727.41C861.762 2247.96 1101.57 1726.45 922.942 1337.05C744.315 947.655 1514.74 1220.52 1549.78 688.121C1590.4 70.7789 1086.26 689.321 515.786 884.167Z" stroke="#3039AC" stroke-width="3"/>
<path opacity="0.79375" d="M529.615 902.414C68.0754 1042.27 236.391 1519.66 378.241 1740.88C827.784 2277.45 1085.65 1764.63 920.717 1369.23C755.789 973.84 1516.22 1273.43 1569.82 742.574C1631.96 127.025 1106.54 727.597 529.615 902.414Z" stroke="#3039AC" stroke-width="3"/>
<path opacity="0.7525" d="M542.798 921.133C76.6592 1044.79 228.211 1527.77 362.255 1753.81C792.798 2305.74 1068.4 1802.23 917.371 1401.32C766.342 1000.41 1515.86 1326.35 1587.95 797.693C1671.54 184.688 1125.47 766.557 542.798 921.133Z" stroke="#3039AC" stroke-width="3"/>
<path opacity="0.71125" d="M555.32 940.301C85.1497 1047.62 219.754 1535.59 345.827 1766.17C756.846 2332.79 1049.85 1839.2 912.907 1433.26C775.961 1027.33 1513.64 1379.23 1604.14 853.411C1709.07 243.697 1143.03 806.153 555.32 940.301Z" stroke="#3039AC" stroke-width="3"/>
<path opacity="0.67" d="M567.166 959.894C93.5364 1050.74 211.028 1543.11 328.978 1777.94C719.971 2358.57 1030.03 1875.5 907.33 1465.04C784.635 1054.57 1509.59 1432.01 1618.38 909.66C1744.53 303.979 1159.2 846.339 567.166 959.894Z" stroke="#3039AC" stroke-width="3"/>
<path opacity="0.62875" d="M578.322 979.888C101.81 1054.15 202.047 1550.32 311.729 1789.13C682.221 2383.04 1008.94 1911.09 900.649 1496.59C792.354 1082.1 1503.69 1484.6 1630.65 966.372C1777.85 365.463 1173.96 887.065 578.322 979.888Z" stroke="#3039AC" stroke-width="3"/>
<path opacity="0.5875" d="M588.771 1000.26C109.958 1057.84 192.817 1557.21 294.099 1799.7C643.637 2406.19 986.633 1945.93 892.869 1527.9C799.106 1109.87 1495.96 1536.96 1640.93 1023.48C1809.02 428.072 1187.29 928.28 588.771 1000.26Z" stroke="#3039AC" stroke-width="3"/>
<path opacity="0.54625" d="M598.502 1020.98C117.972 1061.82 183.353 1563.78 276.11 1809.66C604.269 2427.97 963.119 1979.96 884.001 1558.92C804.884 1137.87 1486.41 1589.02 1649.21 1080.91C1837.97 491.73 1199.17 969.936 598.502 1020.98Z" stroke="#3039AC" stroke-width="3"/>
<path opacity="0.505" d="M607.506 1042.03C125.843 1066.08 173.666 1570.01 257.785 1818.97C564.166 2448.36 938.433 2013.15 874.057 1589.6C809.682 1166.05 1475.05 1640.71 1655.48 1138.59C1864.69 556.36 1209.59 1011.98 607.506 1042.03Z" stroke="#3039AC" stroke-width="3"/>
<path opacity="0.46375" d="M615.771 1063.39C133.562 1070.61 163.769 1575.9 239.149 1827.65C523.378 2467.35 912.605 2045.46 863.05 1619.92C813.496 1194.39 1461.89 1691.98 1659.74 1196.46C1889.14 621.884 1218.53 1054.36 615.771 1063.39Z" stroke="#3039AC" stroke-width="3"/>
<path opacity="0.4225" d="M623.283 1085.01C141.115 1075.4 153.669 1581.44 220.217 1835.67C481.948 2484.9 885.661 2076.85 850.988 1649.84C816.315 1222.84 1446.95 1742.75 1661.97 1254.44C1911.29 688.22 1225.99 1097.03 623.283 1085.01Z" stroke="#3039AC" stroke-width="3"/>
<path opacity="0.38125" d="M630.038 1106.89C148.5 1080.46 143.386 1586.63 201.021 1843.02C439.934 2500.99 857.643 2107.28 837.893 1679.32C818.143 1251.37 1430.25 1792.97 1662.18 1312.46C1931.1 755.29 1231.96 1139.94 630.038 1106.89Z" stroke="#3039AC" stroke-width="3"/>
<path opacity="0.34" d="M636.022 1128.99C155.701 1085.77 132.924 1591.45 181.576 1849.7C397.381 2515.6 828.575 2136.71 823.773 1708.33C818.971 1279.94 1411.8 1842.58 1660.36 1370.46C1948.57 823.009 1236.42 1183.02 636.022 1128.99Z" stroke="#3039AC" stroke-width="3"/>
<path opacity="0.29875" d="M641.234 1151.29C162.713 1091.32 122.302 1595.91 161.912 1855.69C354.346 2528.72 798.5 2165.11 808.651 1736.82C818.802 1308.53 1391.64 1891.51 1656.52 1428.35C1963.66 891.298 1239.38 1226.24 641.234 1151.29Z" stroke="#3039AC" stroke-width="3"/>
<path opacity="0.2575" d="M645.664 1173.75C169.527 1097.12 111.531 1599.99 142.05 1861C310.879 2540.33 767.452 2192.45 792.545 1764.77C817.637 1337.09 1369.78 1939.72 1650.66 1486.08C1976.36 960.071 1240.83 1269.53 645.664 1173.75Z" stroke="#3039AC" stroke-width="3"/>
<path opacity="0.21625" d="M649.308 1196.35C176.136 1103.16 100.626 1603.69 122.017 1865.61C267.034 2550.42 735.47 2218.68 775.473 1792.14C815.476 1365.6 1346.25 1987.12 1642.79 1543.57C1986.65 1029.25 1240.77 1312.85 649.308 1196.35Z" stroke="#3039AC" stroke-width="3"/>
<path opacity="0.175" d="M652.16 1219.07C182.528 1109.42 89.5952 1607.01 101.833 1869.52C222.862 2558.97 702.591 2243.78 757.455 1818.9C812.319 1394.01 1321.08 2033.68 1632.92 1600.74C1994.51 1098.74 1239.2 1356.13 652.16 1219.07Z" stroke="#3039AC" stroke-width="3"/>
<path opacity="0.13375" d="M654.217 1241.87C188.699 1115.9 78.4566 1609.94 81.5255 1872.72C178.419 2565.98 668.856 2267.72 738.515 1845.01C808.174 1422.3 1294.3 2079.33 1621.06 1657.54C1999.95 1168.46 1236.12 1399.34 654.217 1241.87Z" stroke="#3039AC" stroke-width="3"/>
<path opacity="0.0925" d="M655.478 1264.73C194.639 1122.59 67.2225 1612.49 61.1189 1875.21C133.759 2571.43 634.306 2290.47 718.675 1870.44C803.044 1450.42 1265.94 2124.02 1607.23 1713.89C2002.96 1238.33 1231.53 1442.41 655.478 1264.73Z" stroke="#3039AC" stroke-width="3"/>
<path opacity="0.05125" d="M655.94 1287.62C200.343 1129.48 55.9065 1614.64 40.6379 1876.98C88.936 2575.31 598.983 2311.99 697.959 1895.17C796.936 1478.35 1236.05 2167.7 1591.43 1769.73C2003.52 1308.26 1225.44 1485.3 655.94 1287.62Z" stroke="#3039AC" stroke-width="3"/>
<path opacity="0.01" d="M655.603 1310.52C205.803 1136.57 44.5223 1616.39 20.1073 1878.04C44.0046 2577.63 562.931 2332.28 676.394 1919.16C789.856 1506.05 1204.64 2210.3 1573.7 1824.97C2001.64 1378.18 1217.85 1527.95 655.603 1310.52Z" stroke="#3039AC" stroke-width="3"/>
</svg>
